<svg role="img" viewBox="0 0 24 24" xmlns="http://www.w3.org/2000/svg" fill="#6D00CC"><title>Make</title><path d="M11.678 0a1.672 1.672 0 0 0-1.32 2.674L13.36 6.33 4.99 12.544a1.67 1.67 0 1 0 1.875 2.762l9.742-6.914.002-.002 1.847 2.482-9.743 6.914a1.67 1.67 0 1 0 1.875 2.76l9.743-6.913A1.67 1.67 0 0 0 19.84 11l-3.128-4.205 1.55-1.101a1.672 1.672 0 1 0-1.875-2.76l-1.55 1.1-1.527-2.053A1.672 1.672 0 0 0 11.678 0zm-8.35 7.596a1.672 1.672 0 0 0-.938 3.04l1.553 1.1-1.553 1.104a1.67 1.67 0 1 0 1.875 2.76l3.43-2.437a1.67 1.67 0 0 0 0-2.762L5.265 8.03a1.672 1.672 0 0 0-.937-.434z"/></svg>
