<svg role="img" viewBox="0 0 24 24" xmlns="http://www.w3.org/2000/svg" fill="#EA4B71"><title>n8n</title><path d="M21.07 5.04c-.07-.44-.5-.74-.94-.67l-3.4.57-1.23-3.24c-.15-.4-.59-.61-1-.47-.4.14-.62.58-.48.99l1.04 2.75-3.12.52L10.7 2.25c-.15-.4-.59-.61-1-.47-.4.14-.62.58-.48.99l1.24 3.28-3.4.57c-.44.07-.74.5-.67.94.07.44.5.74.94.67l3.4-.57.87 2.3-3.4.57c-.44.07-.74.5-.67.94.07.44.5.74.94.67l3.4-.57 1.24 3.28c.11.3.4.49.71.49.09 0 .19-.01.28-.05.4-.14.62-.58.48-.99l-1.04-2.75 3.12-.52 1.24 3.28c.11.3.4.49.71.49.09 0 .19-.01.28-.05.4-.14.62-.58.48-.99l-1.24-3.28 3.4-.57c.44-.07.74-.5.67-.94zM13.3 10.6l-3.12.52-.87-2.3 3.12-.52.87 2.3z"/></svg>
