<svg role="img" viewBox="15 195 110 110" xmlns="http://www.w3.org/2000/svg"><title>Retell AI</title><path fill="#2563EB" d="M91.604,251.899c-2.78-2.56-0.48-3.11,0.73-4.28c4.13-4.01,5.19-8.88,3.61-14.19c-1.49-5.02-5.23-8.08-10.3-9.1 c-6.47-1.3-11.3,1.57-14.99,6.84c-0.52-0.62-0.93-1.13-1.36-1.61c-5.79-6.51-14.36-7.3-20.31-2.05 c-4.84,4.27-6.72,15.38,0.63,20.65c3.03,2.17,0.66,2.95-0.7,4.22c-4.53,4.27-5.17,9.44-3.22,15.06c1.93,5.54,6.31,7.89,11.83,8.46 c5.83,0.61,9.75-2.53,13.04-7.02c0.58,0.62,0.82,0.85,1.04,1.1c5.92,6.96,14.42,7.99,20.55,2.49 C98.234,267.019,98.244,257.999,91.604,251.899z M70.824,255.529c-5.7-3.62-6.11-7.35-0.58-10.63c1.8,1.54,3.75,3.21,5.69,4.88 C74.214,251.709,72.504,253.649,70.824,255.529z"/><path fill="#2563EB" d="M25.105,258.98c0.801-0.768,1.561-1.584,2.41-2.294c3.201-2.676,7.468-2.48,10.327,0.437 c2.794,2.851,2.852,7.437,0.13,10.338c-2.722,2.902-7.031,3.098-10.387,0.602c-0.88-0.655-1.051-2.127-2.48-2.099 C25.105,263.636,25.105,261.308,25.105,258.98z"/><path fill="#2563EB" d="M60.089,204.103c0.491,1.509,2.181,1.096,3.153,1.996c3.139,2.903,3.586,7.44,0.822,10.677 c-2.599,3.044-7.693,3.418-10.722,0.787c-3.031-2.632-3.338-7.65-0.552-10.668c0.97-1.051,2.193-1.868,3.301-2.792 C57.423,204.103,58.756,204.103,60.089,204.103z"/><path fill="#2563EB" d="M80.079,295.897c-0.238-1.314-1.549-1.604-2.327-2.399c-2.687-2.744-2.854-5.969-1.287-9.127 c1.586-3.197,4.663-4.06,8.027-3.504c3.274,0.542,5.268,2.569,5.778,5.886c0.565,3.674-0.793,6.43-4.139,8.127 c-0.68,0.345-1.693,0.017-2.053,1.018C82.745,295.897,81.412,295.897,80.079,295.897z"/><path fill="#2563EB" d="M116.234,237.479c0.106,4.418-2.945,7.624-7.303,7.676c-4.258,0.05-7.719-3.301-7.697-7.453 c0.021-3.872,3.321-7.294,7.227-7.495C112.683,229.99,116.132,233.217,116.234,237.479z"/><path fill="#2563EB" d="M63.286,288.37c-0.274,3.124-2.004,4.784-5.189,4.684c-3.274-0.102-4.856-2.208-4.77-5.182 c0.088-3.061,2.04-4.907,5.199-4.749C61.647,283.279,63.285,285.128,63.286,288.37z"/><path fill="#2563EB" d="M88.176,211.862c-0.606,3.261-2.277,5.134-5.411,5.008c-3.137-0.125-4.878-2.026-4.752-5.163 c0.126-3.162,2.08-4.818,5.189-4.74C86.416,207.048,87.725,209.199,88.176,211.862z"/><path fill="#2563EB" d="M31.321,232.818c4.435,0.055,6.132,1.936,6.145,4.959c0.013,3.107-2.023,4.985-5.055,4.989 c-3.088,0.004-5.058-2.075-5.008-5.062C27.451,234.789,29.147,232.755,31.321,232.818z"/><path fill="#2563EB" d="M108.798,267.177c-3.13-0.042-4.83-1.672-4.891-4.872c-0.062-3.255,1.878-5.026,4.878-5.078 c3.059-0.053,4.989,1.935,5.057,4.988C113.912,265.324,112.118,267.075,108.798,267.177z"/><path fill="#2563EB" d="M108.396,208.046c2.788,0.154,4.039,1.481,4.157,3.749c0.123,2.374-1.322,3.832-3.517,3.906 c-2.388,0.081-4.029-1.236-3.974-3.91C105.112,209.37,106.689,208.437,108.396,208.046z"/><path fill="#2563EB" d="M112.578,288.063c-0.174,2.207-1.196,3.782-3.631,3.807c-2.321,0.024-3.761-1.233-3.863-3.606 c-0.103-2.407,1.278-3.722,3.602-3.819C111.042,284.347,112.386,285.61,112.578,288.063z"/><path fill="#2563EB" d="M32.551,208.065c2.08,0.27,3.516,1.336,3.655,3.704c0.143,2.432-1.373,3.852-3.453,3.993 c-2.417,0.163-4.089-1.402-4.056-3.935C28.726,209.604,30.072,208.25,32.551,208.065z"/><path fill="#2563EB" d="M36.202,288.436c-0.172,1.986-1.353,3.388-3.73,3.44c-2.434,0.054-3.691-1.448-3.74-3.697 c-0.051-2.336,1.335-3.748,3.72-3.721C34.738,284.484,36.214,285.599,36.202,288.436z"/></svg>
